# xmcd
#
# Track frame offsets:
# 150
# 23189
# 42128
# 54003
# 66863
# 84519
# 105361
# 124778
# 145932
# 167162
# 190653
# 208025
# 224804
# 242405
# 258027
# 276972
# 303100
# 324672
#
# Disc length: 4490 seconds
#
#
# Revision: 0
# Processed by: cddbd v1.5.1PL2 Copyright (c) Steve Scherf et al.
# Submitted via: FreeRIP 2.945 
#
DISCID=f7118812
DTITLE=Joe Cocker - The Definitive Collection
DYEAR=1900
DGENRE=Blues
TTITLE0=Unchain my heart
TTITLE1=You can leave your hat on
TTITLE2=She came in through the bathroom window
TTITLE3=Delta Lady
TTITLE4=Summer in the City
TTITLE5=Hitchcock Railway
TTITLE6=The Letter
TTITLE7=Have a little faith in me
TTITLE8=Darling be home soon
TTITLE9=With a little help from my friends
TTITLE10=Don't let me be misunderstood
TTITLE11=Many rivers to cross
TTITLE12=Up where we belong
TTITLE13=Night calls
TTITLE14=Feeling alright
TTITLE15=Could you be loved
TTITLE16=When the night comes
TTITLE17=You are so beautiful
EXTD=
EXTT0=
EXTT1=
EXTT2=
EXTT3=
EXTT4=
EXTT5=
EXTT6=
EXTT7=
EXTT8=
EXTT9=
EXTT10=
EXTT11=
EXTT12=
EXTT13=
EXTT14=
EXTT15=
EXTT16=
EXTT17=
PLAYORDER=
